<svg xmlns="http://www.w3.org/2000/svg" xmlns:xlink="http://www.w3.org/1999/xlink" fill="#fff" height="48px" width="48px" version="1.1" id="Capa_1" viewBox="0 0 489.975 489.975" xml:space="preserve">
<g>
	<g>
		<g>
			<path d="M90.563,405.188l-0.4-0.4c-89.8-90.2-89.8-236.4,0-326.6c4.3-4.3,4.3-11.7,0-15.9c-4.3-4.3-11.7-4.3-15.9,0     c-98.8,98.8-99.1,259.3-0.4,358.5l-36.2,33l111.2,32.7l-22.6-113.9L90.563,405.188z"/>
			<path d="M415.963,69.288l36.2-33l-111.2-32.8l22.6,113.9l36.2-33l0.8,0.8c89.8,90.2,89.8,236.4-0.4,326.6     c-4.3,4.3-4.3,11.7,0,15.9c0,0,7.5,7.9,16.3,0C514.363,328.988,514.763,168.388,415.963,69.288z"/>
		</g>
		<path d="M322.663,300.488c0-42.5-34.2-77.1-76.6-77.7c-0.4,0-0.8,0-1.1,0c-18.3,0-33.3-14.9-33.3-33.3s14.9-33.3,33.3-33.3    c9.3,0,17.9,3.7,24.2,10.5c8.4,8.9,22.5,9.4,31.4,1s9.4-22.5,1-31.4c-9.4-10-21.4-17.3-34.4-21.2v-15.4c0-12.3-9.9-22.2-22.2-22.2    c-12.3,0-22.2,9.9-22.2,22.2v15.3c-32.1,9.6-55.5,39.3-55.5,74.5c0,42.5,34.2,77.1,76.6,77.7c0.4,0,0.8,0,1.1,0    c18.3,0,33.3,14.9,33.3,33.3s-14.9,33.3-33.3,33.3c-9.3,0-17.9-3.7-24.2-10.5c-8.4-8.9-22.5-9.4-31.4-1s-9.4,22.5-1,31.4    c9.4,10,21.4,17.3,34.4,21.2v15.4c0,12.3,9.9,22.2,22.2,22.2s22.2-9.9,22.2-22.2v-15.3    C299.263,365.388,322.663,335.588,322.663,300.488z"/>
	</g>
</g>
</svg>